<?xml version="1.0" encoding="UTF-8" standalone="no"?>
<!DOCTYPE svg PUBLIC "-//W3C//DTD SVG 1.1//EN"
 "http://www.w3.org/Graphics/SVG/1.1/DTD/svg11.dtd">
<!-- Generated by graphviz version 2.43.0 (0)
 -->
<!-- Title: %3 Pages: 1 -->
<svg width="3088pt" height="476pt"
 viewBox="0.00 0.00 3087.74 476.00" xmlns="http://www.w3.org/2000/svg" xmlns:xlink="http://www.w3.org/1999/xlink">
<g id="graph0" class="graph" transform="scale(1 1) rotate(0) translate(4 472)">
<title>%3</title>
<polygon fill="white" stroke="transparent" points="-4,4 -4,-472 3083.74,-472 3083.74,4 -4,4"/>
<!-- [root] aws_ecs_cluster.vault (expand) -->
<g id="node1" class="node">
<title>[root] aws_ecs_cluster.vault (expand)</title>
<polygon fill="none" stroke="black" points="2085.27,-108 1915.27,-108 1915.27,-72 2085.27,-72 2085.27,-108"/>
<text text-anchor="middle" x="2000.27" y="-86.3" font-family="Times,serif" font-size="14.00">aws_ecs_cluster.vault</text>
</g>
<!-- [root] provider[&quot;registry.terraform.io/hashicorp/aws&quot;] -->
<g id="node21" class="node">
<title>[root] provider[&quot;registry.terraform.io/hashicorp/aws&quot;]</title>
<polygon fill="none" stroke="black" points="883.27,-36 558,-18 883.27,0 1208.53,-18 883.27,-36"/>
<text text-anchor="middle" x="883.27" y="-14.3" font-family="Times,serif" font-size="14.00">provider[&quot;registry.terraform.io/hashicorp/aws&quot;]</text>
</g>
<!-- [root] aws_ecs_cluster.vault (expand)&#45;&gt;[root] provider[&quot;registry.terraform.io/hashicorp/aws&quot;] -->
<g id="edge1" class="edge">
<title>[root] aws_ecs_cluster.vault (expand)&#45;&gt;[root] provider[&quot;registry.terraform.io/hashicorp/aws&quot;]</title>
<path fill="none" stroke="black" d="M1915.22,-74.2C1909.15,-73.38 1903.12,-72.63 1897.27,-72 1631.07,-43.17 1323.81,-29.89 1117.91,-23.86"/>
<polygon fill="black" stroke="black" points="1117.97,-20.36 1107.87,-23.57 1117.77,-27.36 1117.97,-20.36"/>
</g>
<!-- [root] aws_ecs_service.vault (expand) -->
<g id="node2" class="node">
<title>[root] aws_ecs_service.vault (expand)</title>
<polygon fill="none" stroke="black" points="1225.77,-324 1052.77,-324 1052.77,-288 1225.77,-288 1225.77,-324"/>
<text text-anchor="middle" x="1139.27" y="-302.3" font-family="Times,serif" font-size="14.00">aws_ecs_service.vault</text>
</g>
<!-- [root] aws_ecs_service.vault (expand)&#45;&gt;[root] aws_ecs_cluster.vault (expand) -->
<g id="edge2" class="edge">
<title>[root] aws_ecs_service.vault (expand)&#45;&gt;[root] aws_ecs_cluster.vault (expand)</title>
<path fill="none" stroke="black" d="M1226.06,-297.25C1463.31,-275.65 2107.13,-214.14 2137.27,-180 2147.85,-168 2146.31,-157.2 2137.27,-144 2126.93,-128.91 2111.63,-118.12 2094.96,-110.4"/>
<polygon fill="black" stroke="black" points="2096.16,-107.1 2085.58,-106.42 2093.42,-113.55 2096.16,-107.1"/>
</g>
<!-- [root] aws_ecs_task_definition.vault (expand) -->
<g id="node3" class="node">
<title>[root] aws_ecs_task_definition.vault (expand)</title>
<polygon fill="none" stroke="black" points="996.27,-252 770.27,-252 770.27,-216 996.27,-216 996.27,-252"/>
<text text-anchor="middle" x="883.27" y="-230.3" font-family="Times,serif" font-size="14.00">aws_ecs_task_definition.vault</text>
</g>
<!-- [root] aws_ecs_service.vault (expand)&#45;&gt;[root] aws_ecs_task_definition.vault (expand) -->
<g id="edge3" class="edge">
<title>[root] aws_ecs_service.vault (expand)&#45;&gt;[root] aws_ecs_task_definition.vault (expand)</title>
<path fill="none" stroke="black" d="M1076.97,-287.97C1040.42,-277.97 994.07,-265.3 955.88,-254.85"/>
<polygon fill="black" stroke="black" points="956.41,-251.37 945.84,-252.11 954.57,-258.12 956.41,-251.37"/>
</g>
<!-- [root] aws_lb_target_group.vault (expand) -->
<g id="node9" class="node">
<title>[root] aws_lb_target_group.vault (expand)</title>
<polygon fill="none" stroke="black" points="475.77,-252 270.77,-252 270.77,-216 475.77,-216 475.77,-252"/>
<text text-anchor="middle" x="373.27" y="-230.3" font-family="Times,serif" font-size="14.00">aws_lb_target_group.vault</text>
</g>
<!-- [root] aws_ecs_service.vault (expand)&#45;&gt;[root] aws_lb_target_group.vault (expand) -->
<g id="edge4" class="edge">
<title>[root] aws_ecs_service.vault (expand)&#45;&gt;[root] aws_lb_target_group.vault (expand)</title>
<path fill="none" stroke="black" d="M1052.72,-289.28C1049.53,-288.83 1046.37,-288.4 1043.27,-288 848.26,-263.08 619.72,-248 486.26,-240.61"/>
<polygon fill="black" stroke="black" points="486.2,-237.1 476.03,-240.05 485.82,-244.09 486.2,-237.1"/>
</g>
<!-- [root] aws_iam_role.vault_task_role (expand) -->
<g id="node6" class="node">
<title>[root] aws_iam_role.vault_task_role (expand)</title>
<polygon fill="none" stroke="black" points="269.27,-108 45.27,-108 45.27,-72 269.27,-72 269.27,-108"/>
<text text-anchor="middle" x="157.27" y="-86.3" font-family="Times,serif" font-size="14.00">aws_iam_role.vault_task_role</text>
</g>
<!-- [root] aws_ecs_task_definition.vault (expand)&#45;&gt;[root] aws_iam_role.vault_task_role (expand) -->
<g id="edge5" class="edge">
<title>[root] aws_ecs_task_definition.vault (expand)&#45;&gt;[root] aws_iam_role.vault_task_role (expand)</title>
<path fill="none" stroke="black" d="M770.21,-227.47C553.03,-216.57 97.8,-192.33 86.27,-180 75.34,-168.32 79.1,-158.3 86.27,-144 92.37,-131.84 102.73,-121.75 113.68,-113.76"/>
<polygon fill="black" stroke="black" points="115.78,-116.56 122.1,-108.06 111.86,-110.76 115.78,-116.56"/>
</g>
<!-- [root] aws_ssm_parameter.vault_aws_region (expand) -->
<g id="node13" class="node">
<title>[root] aws_ssm_parameter.vault_aws_region (expand)</title>
<polygon fill="none" stroke="black" points="683.77,-108 396.77,-108 396.77,-72 683.77,-72 683.77,-108"/>
<text text-anchor="middle" x="540.27" y="-86.3" font-family="Times,serif" font-size="14.00">aws_ssm_parameter.vault_aws_region</text>
</g>
<!-- [root] aws_ecs_task_definition.vault (expand)&#45;&gt;[root] aws_ssm_parameter.vault_aws_region (expand) -->
<g id="edge6" class="edge">
<title>[root] aws_ecs_task_definition.vault (expand)&#45;&gt;[root] aws_ssm_parameter.vault_aws_region (expand)</title>
<path fill="none" stroke="black" d="M770.26,-227.35C555.7,-216.36 109.59,-192.11 98.27,-180 87.34,-168.31 87.65,-155.97 98.27,-144 117.55,-122.26 266.73,-107.77 386.53,-99.52"/>
<polygon fill="black" stroke="black" points="386.82,-103.01 396.56,-98.84 386.34,-96.02 386.82,-103.01"/>
</g>
<!-- [root] aws_ssm_parameter.vault_aws_s3_bucket (expand) -->
<g id="node14" class="node">
<title>[root] aws_ssm_parameter.vault_aws_s3_bucket (expand)</title>
<polygon fill="none" stroke="black" points="2128.77,-180 1815.77,-180 1815.77,-144 2128.77,-144 2128.77,-180"/>
<text text-anchor="middle" x="1972.27" y="-158.3" font-family="Times,serif" font-size="14.00">aws_ssm_parameter.vault_aws_s3_bucket</text>
</g>
<!-- [root] aws_ecs_task_definition.vault (expand)&#45;&gt;[root] aws_ssm_parameter.vault_aws_s3_bucket (expand) -->
<g id="edge7" class="edge">
<title>[root] aws_ecs_task_definition.vault (expand)&#45;&gt;[root] aws_ssm_parameter.vault_aws_s3_bucket (expand)</title>
<path fill="none" stroke="black" d="M996.34,-228.14C1168.51,-220.37 1506.96,-203.67 1805.3,-180.06"/>
<polygon fill="black" stroke="black" points="1805.76,-183.53 1815.45,-179.25 1805.2,-176.55 1805.76,-183.53"/>
</g>
<!-- [root] aws_ssm_parameter.vault_skip_setcap (expand) -->
<g id="node15" class="node">
<title>[root] aws_ssm_parameter.vault_skip_setcap (expand)</title>
<polygon fill="none" stroke="black" points="397.27,-180 107.27,-180 107.27,-144 397.27,-144 397.27,-180"/>
<text text-anchor="middle" x="252.27" y="-158.3" font-family="Times,serif" font-size="14.00">aws_ssm_parameter.vault_skip_setcap</text>
</g>
<!-- [root] aws_ecs_task_definition.vault (expand)&#45;&gt;[root] aws_ssm_parameter.vault_skip_setcap (expand) -->
<g id="edge8" class="edge">
<title>[root] aws_ecs_task_definition.vault (expand)&#45;&gt;[root] aws_ssm_parameter.vault_skip_setcap (expand)</title>
<path fill="none" stroke="black" d="M770.09,-220.45C668.96,-209.23 519.87,-192.69 407.6,-180.23"/>
<polygon fill="black" stroke="black" points="407.86,-176.74 397.54,-179.12 407.09,-183.7 407.86,-176.74"/>
</g>
<!-- [root] aws_ssm_parameter.vault_vault_addr (expand) -->
<g id="node16" class="node">
<title>[root] aws_ssm_parameter.vault_vault_addr (expand)</title>
<polygon fill="none" stroke="black" points="698.77,-180 415.77,-180 415.77,-144 698.77,-144 698.77,-180"/>
<text text-anchor="middle" x="557.27" y="-158.3" font-family="Times,serif" font-size="14.00">aws_ssm_parameter.vault_vault_addr</text>
</g>
<!-- [root] aws_ecs_task_definition.vault (expand)&#45;&gt;[root] aws_ssm_parameter.vault_vault_addr (expand) -->
<g id="edge9" class="edge">
<title>[root] aws_ecs_task_definition.vault (expand)&#45;&gt;[root] aws_ssm_parameter.vault_vault_addr (expand)</title>
<path fill="none" stroke="black" d="M803.94,-215.97C756.42,-205.76 695.88,-192.76 646.67,-182.2"/>
<polygon fill="black" stroke="black" points="647.18,-178.73 636.67,-180.05 645.71,-185.57 647.18,-178.73"/>
</g>
<!-- [root] aws_ssm_parameter.vault_vault_awskms_seal_key_id (expand) -->
<g id="node17" class="node">
<title>[root] aws_ssm_parameter.vault_vault_awskms_seal_key_id (expand)</title>
<polygon fill="none" stroke="black" points="1797.27,-180 1403.27,-180 1403.27,-144 1797.27,-144 1797.27,-180"/>
<text text-anchor="middle" x="1600.27" y="-158.3" font-family="Times,serif" font-size="14.00">aws_ssm_parameter.vault_vault_awskms_seal_key_id</text>
</g>
<!-- [root] aws_ecs_task_definition.vault (expand)&#45;&gt;[root] aws_ssm_parameter.vault_vault_awskms_seal_key_id (expand) -->
<g id="edge10" class="edge">
<title>[root] aws_ecs_task_definition.vault (expand)&#45;&gt;[root] aws_ssm_parameter.vault_vault_awskms_seal_key_id (expand)</title>
<path fill="none" stroke="black" d="M996.48,-221.95C1108.88,-210.97 1283.08,-193.97 1415.54,-181.03"/>
<polygon fill="black" stroke="black" points="1416.19,-184.49 1425.8,-180.03 1415.51,-177.52 1416.19,-184.49"/>
</g>
<!-- [root] aws_ssm_parameter.vault_vault_local_config (expand) -->
<g id="node18" class="node">
<title>[root] aws_ssm_parameter.vault_vault_local_config (expand)</title>
<polygon fill="none" stroke="black" points="1049.27,-180 717.27,-180 717.27,-144 1049.27,-144 1049.27,-180"/>
<text text-anchor="middle" x="883.27" y="-158.3" font-family="Times,serif" font-size="14.00">aws_ssm_parameter.vault_vault_local_config</text>
</g>
<!-- [root] aws_ecs_task_definition.vault (expand)&#45;&gt;[root] aws_ssm_parameter.vault_vault_local_config (expand) -->
<g id="edge11" class="edge">
<title>[root] aws_ecs_task_definition.vault (expand)&#45;&gt;[root] aws_ssm_parameter.vault_vault_local_config (expand)</title>
<path fill="none" stroke="black" d="M883.27,-215.7C883.27,-207.98 883.27,-198.71 883.27,-190.11"/>
<polygon fill="black" stroke="black" points="886.77,-190.1 883.27,-180.1 879.77,-190.1 886.77,-190.1"/>
</g>
<!-- [root] aws_ssm_parameter.vault_vault_seal_type (expand) -->
<g id="node19" class="node">
<title>[root] aws_ssm_parameter.vault_vault_seal_type (expand)</title>
<polygon fill="none" stroke="black" points="1384.77,-180 1067.77,-180 1067.77,-144 1384.77,-144 1384.77,-180"/>
<text text-anchor="middle" x="1226.27" y="-158.3" font-family="Times,serif" font-size="14.00">aws_ssm_parameter.vault_vault_seal_type</text>
</g>
<!-- [root] aws_ecs_task_definition.vault (expand)&#45;&gt;[root] aws_ssm_parameter.vault_vault_seal_type (expand) -->
<g id="edge12" class="edge">
<title>[root] aws_ecs_task_definition.vault (expand)&#45;&gt;[root] aws_ssm_parameter.vault_vault_seal_type (expand)</title>
<path fill="none" stroke="black" d="M966.74,-215.97C1016.94,-205.72 1080.96,-192.66 1132.85,-182.07"/>
<polygon fill="black" stroke="black" points="1133.62,-185.48 1142.72,-180.05 1132.22,-178.62 1133.62,-185.48"/>
</g>
<!-- [root] aws_iam_policy.kms_management_access (expand) -->
<g id="node4" class="node">
<title>[root] aws_iam_policy.kms_management_access (expand)</title>
<polygon fill="none" stroke="black" points="1034.77,-324 723.77,-324 723.77,-288 1034.77,-288 1034.77,-324"/>
<text text-anchor="middle" x="879.27" y="-302.3" font-family="Times,serif" font-size="14.00">aws_iam_policy.kms_management_access</text>
</g>
<!-- [root] aws_iam_policy.kms_management_access (expand)&#45;&gt;[root] provider[&quot;registry.terraform.io/hashicorp/aws&quot;] -->
<g id="edge13" class="edge">
<title>[root] aws_iam_policy.kms_management_access (expand)&#45;&gt;[root] provider[&quot;registry.terraform.io/hashicorp/aws&quot;]</title>
<path fill="none" stroke="black" d="M723.64,-301.18C597.86,-295.82 416.79,-282.93 261.27,-252 157.46,-231.35 105.73,-258.08 34.27,-180 1.51,-144.2 -14.98,-107.35 18.27,-72 40.28,-48.6 418.05,-32.83 667.01,-24.93"/>
<polygon fill="black" stroke="black" points="667.4,-28.42 677.28,-24.6 667.18,-21.42 667.4,-28.42"/>
</g>
<!-- [root] aws_iam_role.ecs_instance_role (expand) -->
<g id="node5" class="node">
<title>[root] aws_iam_role.ecs_instance_role (expand)</title>
<polygon fill="none" stroke="black" points="2344.77,-108 2103.77,-108 2103.77,-72 2344.77,-72 2344.77,-108"/>
<text text-anchor="middle" x="2224.27" y="-86.3" font-family="Times,serif" font-size="14.00">aws_iam_role.ecs_instance_role</text>
</g>
<!-- [root] aws_iam_role.ecs_instance_role (expand)&#45;&gt;[root] provider[&quot;registry.terraform.io/hashicorp/aws&quot;] -->
<g id="edge14" class="edge">
<title>[root] aws_iam_role.ecs_instance_role (expand)&#45;&gt;[root] provider[&quot;registry.terraform.io/hashicorp/aws&quot;]</title>
<path fill="none" stroke="black" d="M2103.55,-72.85C2100.43,-72.55 2097.33,-72.27 2094.27,-72 1758.76,-42.78 1369.49,-29.38 1124.78,-23.44"/>
<polygon fill="black" stroke="black" points="1124.76,-19.94 1114.68,-23.2 1124.6,-26.94 1124.76,-19.94"/>
</g>
<!-- [root] aws_iam_role.vault_task_role (expand)&#45;&gt;[root] provider[&quot;registry.terraform.io/hashicorp/aws&quot;] -->
<g id="edge15" class="edge">
<title>[root] aws_iam_role.vault_task_role (expand)&#45;&gt;[root] provider[&quot;registry.terraform.io/hashicorp/aws&quot;]</title>
<path fill="none" stroke="black" d="M269.51,-78.18C402.6,-65.35 623.63,-44.03 760.98,-30.79"/>
<polygon fill="black" stroke="black" points="761.51,-34.26 771.13,-29.81 760.84,-27.29 761.51,-34.26"/>
</g>
<!-- [root] aws_kms_key.vault_key (expand) -->
<g id="node7" class="node">
<title>[root] aws_kms_key.vault_key (expand)</title>
<polygon fill="none" stroke="black" points="1326.27,-108 1144.27,-108 1144.27,-72 1326.27,-72 1326.27,-108"/>
<text text-anchor="middle" x="1235.27" y="-86.3" font-family="Times,serif" font-size="14.00">aws_kms_key.vault_key</text>
</g>
<!-- [root] aws_kms_key.vault_key (expand)&#45;&gt;[root] provider[&quot;registry.terraform.io/hashicorp/aws&quot;] -->
<g id="edge16" class="edge">
<title>[root] aws_kms_key.vault_key (expand)&#45;&gt;[root] provider[&quot;registry.terraform.io/hashicorp/aws&quot;]</title>
<path fill="none" stroke="black" d="M1149.61,-71.97C1091.73,-60.46 1015.96,-45.39 960.04,-34.27"/>
<polygon fill="black" stroke="black" points="960.69,-30.83 950.2,-32.31 959.32,-37.69 960.69,-30.83"/>
</g>
<!-- [root] aws_launch_template.vault (expand) -->
<g id="node8" class="node">
<title>[root] aws_launch_template.vault (expand)</title>
<polygon fill="none" stroke="black" points="2394.77,-252 2185.77,-252 2185.77,-216 2394.77,-216 2394.77,-252"/>
<text text-anchor="middle" x="2290.27" y="-230.3" font-family="Times,serif" font-size="14.00">aws_launch_template.vault</text>
</g>
<!-- [root] aws_launch_template.vault (expand)&#45;&gt;[root] aws_iam_role.ecs_instance_role (expand) -->
<g id="edge17" class="edge">
<title>[root] aws_launch_template.vault (expand)&#45;&gt;[root] aws_iam_role.ecs_instance_role (expand)</title>
<path fill="none" stroke="black" d="M2275.76,-215.75C2267.95,-205.8 2258.64,-192.76 2252.27,-180 2242.34,-160.14 2235.02,-136.02 2230.35,-117.91"/>
<polygon fill="black" stroke="black" points="2233.71,-116.89 2227.92,-108.01 2226.91,-118.56 2233.71,-116.89"/>
</g>
<!-- [root] aws_security_group.vault_instance (expand) -->
<g id="node11" class="node">
<title>[root] aws_security_group.vault_instance (expand)</title>
<polygon fill="none" stroke="black" points="1888.77,-108 1623.77,-108 1623.77,-72 1888.77,-72 1888.77,-108"/>
<text text-anchor="middle" x="1756.27" y="-86.3" font-family="Times,serif" font-size="14.00">aws_security_group.vault_instance</text>
</g>
<!-- [root] aws_launch_template.vault (expand)&#45;&gt;[root] aws_security_group.vault_instance (expand) -->
<g id="edge18" class="edge">
<title>[root] aws_launch_template.vault (expand)&#45;&gt;[root] aws_security_group.vault_instance (expand)</title>
<path fill="none" stroke="black" d="M2267.54,-215.93C2238.82,-195.3 2187.08,-161.2 2137.27,-144 2114.61,-136.18 1997.54,-120.46 1899.07,-108.16"/>
<polygon fill="black" stroke="black" points="1899.35,-104.67 1889,-106.91 1898.49,-111.62 1899.35,-104.67"/>
</g>
<!-- [root] data.template_file.vault_instance_user_data (expand) -->
<g id="node20" class="node">
<title>[root] data.template_file.vault_instance_user_data (expand)</title>
<polygon fill="none" stroke="black" points="2589.77,-180 2260.77,-180 2260.77,-144 2589.77,-144 2589.77,-180"/>
<text text-anchor="middle" x="2425.27" y="-158.3" font-family="Times,serif" font-size="14.00">data.template_file.vault_instance_user_data</text>
</g>
<!-- [root] aws_launch_template.vault (expand)&#45;&gt;[root] data.template_file.vault_instance_user_data (expand) -->
<g id="edge19" class="edge">
<title>[root] aws_launch_template.vault (expand)&#45;&gt;[root] data.template_file.vault_instance_user_data (expand)</title>
<path fill="none" stroke="black" d="M2323.29,-215.88C2341.35,-206.51 2363.91,-194.81 2383.22,-184.8"/>
<polygon fill="black" stroke="black" points="2384.85,-187.9 2392.12,-180.19 2381.63,-181.69 2384.85,-187.9"/>
</g>
<!-- [root] aws_lb_target_group.vault (expand)&#45;&gt;[root] provider[&quot;registry.terraform.io/hashicorp/aws&quot;] -->
<g id="edge20" class="edge">
<title>[root] aws_lb_target_group.vault (expand)&#45;&gt;[root] provider[&quot;registry.terraform.io/hashicorp/aws&quot;]</title>
<path fill="none" stroke="black" d="M270.47,-224.07C197.41,-215.99 107.01,-201.95 76.27,-180 34.61,-150.25 1.22,-109.31 36.27,-72 57.78,-49.1 426.65,-33.19 670.45,-25.12"/>
<polygon fill="black" stroke="black" points="670.63,-28.61 680.51,-24.79 670.4,-21.62 670.63,-28.61"/>
</g>
<!-- [root] aws_s3_bucket.vault_coffee (expand) -->
<g id="node10" class="node">
<title>[root] aws_s3_bucket.vault_coffee (expand)</title>
<polygon fill="none" stroke="black" points="1589.27,-108 1377.27,-108 1377.27,-72 1589.27,-72 1589.27,-108"/>
<text text-anchor="middle" x="1483.27" y="-86.3" font-family="Times,serif" font-size="14.00">aws_s3_bucket.vault_coffee</text>
</g>
<!-- [root] aws_s3_bucket.vault_coffee (expand)&#45;&gt;[root] provider[&quot;registry.terraform.io/hashicorp/aws&quot;] -->
<g id="edge21" class="edge">
<title>[root] aws_s3_bucket.vault_coffee (expand)&#45;&gt;[root] provider[&quot;registry.terraform.io/hashicorp/aws&quot;]</title>
<path fill="none" stroke="black" d="M1377.04,-76.61C1268.83,-63.98 1101.86,-44.5 992.56,-31.75"/>
<polygon fill="black" stroke="black" points="992.84,-28.26 982.5,-30.58 992.03,-35.21 992.84,-28.26"/>
</g>
<!-- [root] aws_security_group.vault_instance (expand)&#45;&gt;[root] provider[&quot;registry.terraform.io/hashicorp/aws&quot;] -->
<g id="edge22" class="edge">
<title>[root] aws_security_group.vault_instance (expand)&#45;&gt;[root] provider[&quot;registry.terraform.io/hashicorp/aws&quot;]</title>
<path fill="none" stroke="black" d="M1623.54,-74.4C1614.99,-73.56 1606.51,-72.75 1598.27,-72 1404.42,-54.39 1180.62,-38.52 1035.78,-28.83"/>
<polygon fill="black" stroke="black" points="1035.7,-25.32 1025.48,-28.15 1035.23,-32.3 1035.7,-25.32"/>
</g>
<!-- [root] aws_spot_fleet_request.vault (expand) -->
<g id="node12" class="node">
<title>[root] aws_spot_fleet_request.vault (expand)</title>
<polygon fill="none" stroke="black" points="1653.27,-324 1431.27,-324 1431.27,-288 1653.27,-288 1653.27,-324"/>
<text text-anchor="middle" x="1542.27" y="-302.3" font-family="Times,serif" font-size="14.00">aws_spot_fleet_request.vault</text>
</g>
<!-- [root] aws_spot_fleet_request.vault (expand)&#45;&gt;[root] aws_launch_template.vault (expand) -->
<g id="edge23" class="edge">
<title>[root] aws_spot_fleet_request.vault (expand)&#45;&gt;[root] aws_launch_template.vault (expand)</title>
<path fill="none" stroke="black" d="M1653.52,-297.58C1779.38,-288.73 1990.37,-272.52 2171.27,-252 2172.58,-251.85 2173.9,-251.7 2175.23,-251.54"/>
<polygon fill="black" stroke="black" points="2176,-254.98 2185.51,-250.31 2175.16,-248.03 2176,-254.98"/>
</g>
<!-- [root] aws_ssm_parameter.vault_aws_region (expand)&#45;&gt;[root] provider[&quot;registry.terraform.io/hashicorp/aws&quot;] -->
<g id="edge24" class="edge">
<title>[root] aws_ssm_parameter.vault_aws_region (expand)&#45;&gt;[root] provider[&quot;registry.terraform.io/hashicorp/aws&quot;]</title>
<path fill="none" stroke="black" d="M623.74,-71.97C679.83,-60.52 753.17,-45.55 807.57,-34.45"/>
<polygon fill="black" stroke="black" points="808.4,-37.85 817.5,-32.42 807,-30.99 808.4,-37.85"/>
</g>
<!-- [root] aws_ssm_parameter.vault_aws_s3_bucket (expand)&#45;&gt;[root] aws_s3_bucket.vault_coffee (expand) -->
<g id="edge25" class="edge">
<title>[root] aws_ssm_parameter.vault_aws_s3_bucket (expand)&#45;&gt;[root] aws_s3_bucket.vault_coffee (expand)</title>
<path fill="none" stroke="black" d="M1853.27,-143.97C1776.16,-132.93 1676.2,-118.62 1599.62,-107.66"/>
<polygon fill="black" stroke="black" points="1599.85,-104.15 1589.45,-106.2 1598.86,-111.08 1599.85,-104.15"/>
</g>
<!-- [root] aws_ssm_parameter.vault_skip_setcap (expand)&#45;&gt;[root] provider[&quot;registry.terraform.io/hashicorp/aws&quot;] -->
<g id="edge26" class="edge">
<title>[root] aws_ssm_parameter.vault_skip_setcap (expand)&#45;&gt;[root] provider[&quot;registry.terraform.io/hashicorp/aws&quot;]</title>
<path fill="none" stroke="black" d="M397.29,-144.64C519.91,-130.63 677.94,-112.09 692.27,-108 722.3,-99.43 797.23,-62.7 843.81,-39.19"/>
<polygon fill="black" stroke="black" points="845.67,-42.17 853.01,-34.53 842.51,-35.93 845.67,-42.17"/>
</g>
<!-- [root] aws_ssm_parameter.vault_vault_addr (expand)&#45;&gt;[root] provider[&quot;registry.terraform.io/hashicorp/aws&quot;] -->
<g id="edge27" class="edge">
<title>[root] aws_ssm_parameter.vault_vault_addr (expand)&#45;&gt;[root] provider[&quot;registry.terraform.io/hashicorp/aws&quot;]</title>
<path fill="none" stroke="black" d="M675.3,-143.95C710.33,-136.02 747.94,-124.54 780.27,-108 812.35,-91.58 842.77,-63.14 862.11,-42.82"/>
<polygon fill="black" stroke="black" points="864.7,-45.18 868.96,-35.48 859.58,-40.4 864.7,-45.18"/>
</g>
<!-- [root] aws_ssm_parameter.vault_vault_awskms_seal_key_id (expand)&#45;&gt;[root] aws_kms_key.vault_key (expand) -->
<g id="edge28" class="edge">
<title>[root] aws_ssm_parameter.vault_vault_awskms_seal_key_id (expand)&#45;&gt;[root] aws_kms_key.vault_key (expand)</title>
<path fill="none" stroke="black" d="M1511.44,-143.97C1457.91,-133.7 1389.61,-120.6 1334.33,-110"/>
<polygon fill="black" stroke="black" points="1334.65,-106.5 1324.17,-108.05 1333.33,-113.37 1334.65,-106.5"/>
</g>
<!-- [root] aws_ssm_parameter.vault_vault_local_config (expand)&#45;&gt;[root] provider[&quot;registry.terraform.io/hashicorp/aws&quot;] -->
<g id="edge29" class="edge">
<title>[root] aws_ssm_parameter.vault_vault_local_config (expand)&#45;&gt;[root] provider[&quot;registry.terraform.io/hashicorp/aws&quot;]</title>
<path fill="none" stroke="black" d="M883.27,-143.87C883.27,-119.67 883.27,-75.21 883.27,-46.39"/>
<polygon fill="black" stroke="black" points="886.77,-46.19 883.27,-36.19 879.77,-46.19 886.77,-46.19"/>
</g>
<!-- [root] aws_ssm_parameter.vault_vault_seal_type (expand)&#45;&gt;[root] provider[&quot;registry.terraform.io/hashicorp/aws&quot;] -->
<g id="edge30" class="edge">
<title>[root] aws_ssm_parameter.vault_vault_seal_type (expand)&#45;&gt;[root] provider[&quot;registry.terraform.io/hashicorp/aws&quot;]</title>
<path fill="none" stroke="black" d="M1184.89,-143.87C1120.36,-117.15 996.19,-65.75 929.05,-37.95"/>
<polygon fill="black" stroke="black" points="930.15,-34.62 919.57,-34.03 927.47,-41.09 930.15,-34.62"/>
</g>
<!-- [root] data.template_file.vault_instance_user_data (expand)&#45;&gt;[root] aws_ecs_cluster.vault (expand) -->
<g id="edge31" class="edge">
<title>[root] data.template_file.vault_instance_user_data (expand)&#45;&gt;[root] aws_ecs_cluster.vault (expand)</title>
<path fill="none" stroke="black" d="M2315.94,-143.94C2254.27,-134.2 2175.54,-121.57 2095.7,-108.06"/>
<polygon fill="black" stroke="black" points="2095.89,-104.54 2085.45,-106.32 2094.72,-111.44 2095.89,-104.54"/>
</g>
<!-- [root] provider[&quot;registry.terraform.io/hashicorp/template&quot;] -->
<g id="node22" class="node">
<title>[root] provider[&quot;registry.terraform.io/hashicorp/template&quot;]</title>
<polygon fill="none" stroke="black" points="2721.27,-108 2362.82,-90 2721.27,-72 3079.71,-90 2721.27,-108"/>
<text text-anchor="middle" x="2721.27" y="-86.3" font-family="Times,serif" font-size="14.00">provider[&quot;registry.terraform.io/hashicorp/template&quot;]</text>
</g>
<!-- [root] data.template_file.vault_instance_user_data (expand)&#45;&gt;[root] provider[&quot;registry.terraform.io/hashicorp/template&quot;] -->
<g id="edge32" class="edge">
<title>[root] data.template_file.vault_instance_user_data (expand)&#45;&gt;[root] provider[&quot;registry.terraform.io/hashicorp/template&quot;]</title>
<path fill="none" stroke="black" d="M2497.3,-143.97C2544.33,-132.84 2605.4,-118.4 2651.89,-107.41"/>
<polygon fill="black" stroke="black" points="2652.95,-110.75 2661.88,-105.04 2651.34,-103.94 2652.95,-110.75"/>
</g>
<!-- [root] meta.count&#45;boundary (EachMode fixup) -->
<g id="node23" class="node">
<title>[root] meta.count&#45;boundary (EachMode fixup)</title>
<ellipse fill="none" stroke="black" cx="1009.27" cy="-378" rx="222.86" ry="18"/>
<text text-anchor="middle" x="1009.27" y="-374.3" font-family="Times,serif" font-size="14.00">[root] meta.count&#45;boundary (EachMode fixup)</text>
</g>
<!-- [root] meta.count&#45;boundary (EachMode fixup)&#45;&gt;[root] aws_ecs_service.vault (expand) -->
<g id="edge33" class="edge">
<title>[root] meta.count&#45;boundary (EachMode fixup)&#45;&gt;[root] aws_ecs_service.vault (expand)</title>
<path fill="none" stroke="black" d="M1040.74,-360.05C1058.17,-350.67 1080.04,-338.89 1098.74,-328.82"/>
<polygon fill="black" stroke="black" points="1100.49,-331.85 1107.64,-324.03 1097.17,-325.69 1100.49,-331.85"/>
</g>
<!-- [root] meta.count&#45;boundary (EachMode fixup)&#45;&gt;[root] aws_iam_policy.kms_management_access (expand) -->
<g id="edge34" class="edge">
<title>[root] meta.count&#45;boundary (EachMode fixup)&#45;&gt;[root] aws_iam_policy.kms_management_access (expand)</title>
<path fill="none" stroke="black" d="M977.8,-360.05C960.36,-350.67 938.49,-338.89 919.79,-328.82"/>
<polygon fill="black" stroke="black" points="921.36,-325.69 910.9,-324.03 918.04,-331.85 921.36,-325.69"/>
</g>
<!-- [root] meta.count&#45;boundary (EachMode fixup)&#45;&gt;[root] aws_spot_fleet_request.vault (expand) -->
<g id="edge35" class="edge">
<title>[root] meta.count&#45;boundary (EachMode fixup)&#45;&gt;[root] aws_spot_fleet_request.vault (expand)</title>
<path fill="none" stroke="black" d="M1120.68,-362.37C1208.48,-350.84 1330.73,-334.78 1420.99,-322.93"/>
<polygon fill="black" stroke="black" points="1421.54,-326.39 1431,-321.61 1420.63,-319.44 1421.54,-326.39"/>
</g>
<!-- [root] provider[&quot;registry.terraform.io/hashicorp/aws&quot;] (close) -->
<g id="node24" class="node">
<title>[root] provider[&quot;registry.terraform.io/hashicorp/aws&quot;] (close)</title>
<ellipse fill="none" stroke="black" cx="1542.27" cy="-378" rx="291.65" ry="18"/>
<text text-anchor="middle" x="1542.27" y="-374.3" font-family="Times,serif" font-size="14.00">[root] provider[&quot;registry.terraform.io/hashicorp/aws&quot;] (close)</text>
</g>
<!-- [root] provider[&quot;registry.terraform.io/hashicorp/aws&quot;] (close)&#45;&gt;[root] aws_ecs_service.vault (expand) -->
<g id="edge36" class="edge">
<title>[root] provider[&quot;registry.terraform.io/hashicorp/aws&quot;] (close)&#45;&gt;[root] aws_ecs_service.vault (expand)</title>
<path fill="none" stroke="black" d="M1449.56,-360.9C1385.69,-349.8 1301,-335.09 1236.23,-323.84"/>
<polygon fill="black" stroke="black" points="1236.46,-320.33 1226.01,-322.07 1235.27,-327.23 1236.46,-320.33"/>
</g>
<!-- [root] provider[&quot;registry.terraform.io/hashicorp/aws&quot;] (close)&#45;&gt;[root] aws_iam_policy.kms_management_access (expand) -->
<g id="edge37" class="edge">
<title>[root] provider[&quot;registry.terraform.io/hashicorp/aws&quot;] (close)&#45;&gt;[root] aws_iam_policy.kms_management_access (expand)</title>
<path fill="none" stroke="black" d="M1402.07,-362.2C1297.78,-351.19 1155.09,-336.12 1045.13,-324.51"/>
<polygon fill="black" stroke="black" points="1045.24,-321 1034.92,-323.43 1044.5,-327.97 1045.24,-321"/>
</g>
<!-- [root] provider[&quot;registry.terraform.io/hashicorp/aws&quot;] (close)&#45;&gt;[root] aws_spot_fleet_request.vault (expand) -->
<g id="edge38" class="edge">
<title>[root] provider[&quot;registry.terraform.io/hashicorp/aws&quot;] (close)&#45;&gt;[root] aws_spot_fleet_request.vault (expand)</title>
<path fill="none" stroke="black" d="M1542.27,-359.7C1542.27,-351.98 1542.27,-342.71 1542.27,-334.11"/>
<polygon fill="black" stroke="black" points="1545.77,-334.1 1542.27,-324.1 1538.77,-334.1 1545.77,-334.1"/>
</g>
<!-- [root] provider[&quot;registry.terraform.io/hashicorp/template&quot;] (close) -->
<g id="node25" class="node">
<title>[root] provider[&quot;registry.terraform.io/hashicorp/template&quot;] (close)</title>
<ellipse fill="none" stroke="black" cx="2296.27" cy="-378" rx="315.44" ry="18"/>
<text text-anchor="middle" x="2296.27" y="-374.3" font-family="Times,serif" font-size="14.00">[root] provider[&quot;registry.terraform.io/hashicorp/template&quot;] (close)</text>
</g>
<!-- [root] provider[&quot;registry.terraform.io/hashicorp/template&quot;] (close)&#45;&gt;[root] data.template_file.vault_instance_user_data (expand) -->
<g id="edge39" class="edge">
<title>[root] provider[&quot;registry.terraform.io/hashicorp/template&quot;] (close)&#45;&gt;[root] data.template_file.vault_instance_user_data (expand)</title>
<path fill="none" stroke="black" d="M2316.27,-359.65C2340.79,-337.26 2381.83,-295.93 2404.27,-252 2414.17,-232.62 2419.48,-208.47 2422.29,-190.22"/>
<polygon fill="black" stroke="black" points="2425.77,-190.62 2423.67,-180.24 2418.83,-189.67 2425.77,-190.62"/>
</g>
<!-- [root] root -->
<g id="node26" class="node">
<title>[root] root</title>
<ellipse fill="none" stroke="black" cx="1542.27" cy="-450" rx="58.49" ry="18"/>
<text text-anchor="middle" x="1542.27" y="-446.3" font-family="Times,serif" font-size="14.00">[root] root</text>
</g>
<!-- [root] root&#45;&gt;[root] meta.count&#45;boundary (EachMode fixup) -->
<g id="edge40" class="edge">
<title>[root] root&#45;&gt;[root] meta.count&#45;boundary (EachMode fixup)</title>
<path fill="none" stroke="black" d="M1489.7,-442.1C1406.85,-431.22 1243.69,-409.79 1130.65,-394.94"/>
<polygon fill="black" stroke="black" points="1130.93,-391.45 1120.56,-393.62 1130.02,-398.39 1130.93,-391.45"/>
</g>
<!-- [root] root&#45;&gt;[root] provider[&quot;registry.terraform.io/hashicorp/aws&quot;] (close) -->
<g id="edge41" class="edge">
<title>[root] root&#45;&gt;[root] provider[&quot;registry.terraform.io/hashicorp/aws&quot;] (close)</title>
<path fill="none" stroke="black" d="M1542.27,-431.7C1542.27,-423.98 1542.27,-414.71 1542.27,-406.11"/>
<polygon fill="black" stroke="black" points="1545.77,-406.1 1542.27,-396.1 1538.77,-406.1 1545.77,-406.1"/>
</g>
<!-- [root] root&#45;&gt;[root] provider[&quot;registry.terraform.io/hashicorp/template&quot;] (close) -->
<g id="edge42" class="edge">
<title>[root] root&#45;&gt;[root] provider[&quot;registry.terraform.io/hashicorp/template&quot;] (close)</title>
<path fill="none" stroke="black" d="M1597.41,-443.88C1707.75,-433.64 1959.63,-410.25 2128.88,-394.54"/>
<polygon fill="black" stroke="black" points="2129.26,-398.02 2138.9,-393.61 2128.62,-391.05 2129.26,-398.02"/>
</g>
</g>
</svg>
