<?xml version="1.0" encoding="UTF-8" standalone="no"?>
<!DOCTYPE svg PUBLIC "-//W3C//DTD SVG 1.1//EN"
 "http://www.w3.org/Graphics/SVG/1.1/DTD/svg11.dtd">
<!-- Generated by graphviz version 2.43.0 (0)
 -->
<!-- Title: %3 Pages: 1 -->
<svg width="3231pt" height="548pt"
 viewBox="0.00 0.00 3230.72 548.00" xmlns="http://www.w3.org/2000/svg" xmlns:xlink="http://www.w3.org/1999/xlink">
<g id="graph0" class="graph" transform="scale(1 1) rotate(0) translate(4 544)">
<title>%3</title>
<polygon fill="white" stroke="transparent" points="-4,4 -4,-544 3226.72,-544 3226.72,4 -4,4"/>
<!-- [root] aws_ecs_cluster.vault (expand) -->
<g id="node1" class="node">
<title>[root] aws_ecs_cluster.vault (expand)</title>
<polygon fill="none" stroke="black" points="2158.5,-180 1988.5,-180 1988.5,-144 2158.5,-144 2158.5,-180"/>
<text text-anchor="middle" x="2073.5" y="-158.3" font-family="Times,serif" font-size="14.00">aws_ecs_cluster.vault</text>
</g>
<!-- [root] provider[&quot;registry.terraform.io/hashicorp/aws&quot;] -->
<g id="node21" class="node">
<title>[root] provider[&quot;registry.terraform.io/hashicorp/aws&quot;]</title>
<polygon fill="none" stroke="black" points="1147.5,-108 822.24,-90 1147.5,-72 1472.76,-90 1147.5,-108"/>
<text text-anchor="middle" x="1147.5" y="-86.3" font-family="Times,serif" font-size="14.00">provider[&quot;registry.terraform.io/hashicorp/aws&quot;]</text>
</g>
<!-- [root] aws_ecs_cluster.vault (expand)&#45;&gt;[root] provider[&quot;registry.terraform.io/hashicorp/aws&quot;] -->
<g id="edge1" class="edge">
<title>[root] aws_ecs_cluster.vault (expand)&#45;&gt;[root] provider[&quot;registry.terraform.io/hashicorp/aws&quot;]</title>
<path fill="none" stroke="black" d="M1988.37,-145.29C1985.04,-144.82 1981.74,-144.39 1978.5,-144 1766.13,-118.31 1521.61,-104.61 1353.08,-97.62"/>
<polygon fill="black" stroke="black" points="1352.98,-94.12 1342.84,-97.2 1352.69,-101.11 1352.98,-94.12"/>
</g>
<!-- [root] aws_ecs_service.vault (expand) -->
<g id="node2" class="node">
<title>[root] aws_ecs_service.vault (expand)</title>
<polygon fill="none" stroke="black" points="1977,-396 1804,-396 1804,-360 1977,-360 1977,-396"/>
<text text-anchor="middle" x="1890.5" y="-374.3" font-family="Times,serif" font-size="14.00">aws_ecs_service.vault</text>
</g>
<!-- [root] aws_ecs_service.vault (expand)&#45;&gt;[root] aws_ecs_cluster.vault (expand) -->
<g id="edge2" class="edge">
<title>[root] aws_ecs_service.vault (expand)&#45;&gt;[root] aws_ecs_cluster.vault (expand)</title>
<path fill="none" stroke="black" d="M1918.94,-359.9C1952.32,-338.5 2007.32,-298.91 2040.5,-252 2053.69,-233.36 2062.27,-208.82 2067.36,-190.23"/>
<polygon fill="black" stroke="black" points="2070.81,-190.88 2069.91,-180.33 2064.03,-189.14 2070.81,-190.88"/>
</g>
<!-- [root] aws_ecs_task_definition.vault (expand) -->
<g id="node3" class="node">
<title>[root] aws_ecs_task_definition.vault (expand)</title>
<polygon fill="none" stroke="black" points="988.5,-324 762.5,-324 762.5,-288 988.5,-288 988.5,-324"/>
<text text-anchor="middle" x="875.5" y="-302.3" font-family="Times,serif" font-size="14.00">aws_ecs_task_definition.vault</text>
</g>
<!-- [root] aws_ecs_service.vault (expand)&#45;&gt;[root] aws_ecs_task_definition.vault (expand) -->
<g id="edge3" class="edge">
<title>[root] aws_ecs_service.vault (expand)&#45;&gt;[root] aws_ecs_task_definition.vault (expand)</title>
<path fill="none" stroke="black" d="M1803.96,-371.03C1623.66,-358.6 1207.27,-329.88 998.92,-315.51"/>
<polygon fill="black" stroke="black" points="999.07,-312.01 988.85,-314.82 998.59,-319 999.07,-312.01"/>
</g>
<!-- [root] aws_iam_role.vault_task_role (expand) -->
<g id="node7" class="node">
<title>[root] aws_iam_role.vault_task_role (expand)</title>
<polygon fill="none" stroke="black" points="2031.5,-252 1807.5,-252 1807.5,-216 2031.5,-216 2031.5,-252"/>
<text text-anchor="middle" x="1919.5" y="-230.3" font-family="Times,serif" font-size="14.00">aws_iam_role.vault_task_role</text>
</g>
<!-- [root] aws_ecs_task_definition.vault (expand)&#45;&gt;[root] aws_iam_role.vault_task_role (expand) -->
<g id="edge4" class="edge">
<title>[root] aws_ecs_task_definition.vault (expand)&#45;&gt;[root] aws_iam_role.vault_task_role (expand)</title>
<path fill="none" stroke="black" d="M988.69,-301.5C1161.02,-295.5 1499.68,-281.09 1797.34,-252.06"/>
<polygon fill="black" stroke="black" points="1797.86,-255.53 1807.47,-251.07 1797.17,-248.56 1797.86,-255.53"/>
</g>
<!-- [root] aws_ssm_parameter.vault_aws_region (expand) -->
<g id="node13" class="node">
<title>[root] aws_ssm_parameter.vault_aws_region (expand)</title>
<polygon fill="none" stroke="black" points="657,-180 370,-180 370,-144 657,-144 657,-180"/>
<text text-anchor="middle" x="513.5" y="-158.3" font-family="Times,serif" font-size="14.00">aws_ssm_parameter.vault_aws_region</text>
</g>
<!-- [root] aws_ecs_task_definition.vault (expand)&#45;&gt;[root] aws_ssm_parameter.vault_aws_region (expand) -->
<g id="edge5" class="edge">
<title>[root] aws_ecs_task_definition.vault (expand)&#45;&gt;[root] aws_ssm_parameter.vault_aws_region (expand)</title>
<path fill="none" stroke="black" d="M762.34,-300.54C626.01,-293.97 412.1,-279.41 387.5,-252 376.81,-240.09 378.65,-229.33 387.5,-216 396.63,-202.25 410.11,-192.06 424.89,-184.51"/>
<polygon fill="black" stroke="black" points="426.66,-187.54 434.23,-180.14 423.69,-181.2 426.66,-187.54"/>
</g>
<!-- [root] aws_ssm_parameter.vault_aws_s3_bucket (expand) -->
<g id="node14" class="node">
<title>[root] aws_ssm_parameter.vault_aws_s3_bucket (expand)</title>
<polygon fill="none" stroke="black" points="313,-252 0,-252 0,-216 313,-216 313,-252"/>
<text text-anchor="middle" x="156.5" y="-230.3" font-family="Times,serif" font-size="14.00">aws_ssm_parameter.vault_aws_s3_bucket</text>
</g>
<!-- [root] aws_ecs_task_definition.vault (expand)&#45;&gt;[root] aws_ssm_parameter.vault_aws_s3_bucket (expand) -->
<g id="edge6" class="edge">
<title>[root] aws_ecs_task_definition.vault (expand)&#45;&gt;[root] aws_ssm_parameter.vault_aws_s3_bucket (expand)</title>
<path fill="none" stroke="black" d="M762.4,-294.15C651.59,-283.5 477.92,-266.75 327.5,-252 326.02,-251.85 324.52,-251.71 323.03,-251.56"/>
<polygon fill="black" stroke="black" points="323.35,-248.08 313.05,-250.58 322.66,-255.04 323.35,-248.08"/>
</g>
<!-- [root] aws_ssm_parameter.vault_skip_setcap (expand) -->
<g id="node15" class="node">
<title>[root] aws_ssm_parameter.vault_skip_setcap (expand)</title>
<polygon fill="none" stroke="black" points="1007.5,-180 717.5,-180 717.5,-144 1007.5,-144 1007.5,-180"/>
<text text-anchor="middle" x="862.5" y="-158.3" font-family="Times,serif" font-size="14.00">aws_ssm_parameter.vault_skip_setcap</text>
</g>
<!-- [root] aws_ecs_task_definition.vault (expand)&#45;&gt;[root] aws_ssm_parameter.vault_skip_setcap (expand) -->
<g id="edge7" class="edge">
<title>[root] aws_ecs_task_definition.vault (expand)&#45;&gt;[root] aws_ssm_parameter.vault_skip_setcap (expand)</title>
<path fill="none" stroke="black" d="M762.27,-300.22C628.9,-293.4 422.36,-278.66 398.5,-252 387.83,-240.08 387.85,-227.94 398.5,-216 403.75,-210.11 574.24,-191.78 707.04,-178.32"/>
<polygon fill="black" stroke="black" points="707.74,-181.77 717.34,-177.28 707.03,-174.81 707.74,-181.77"/>
</g>
<!-- [root] aws_ssm_parameter.vault_vault_addr (expand) -->
<g id="node16" class="node">
<title>[root] aws_ssm_parameter.vault_vault_addr (expand)</title>
<polygon fill="none" stroke="black" points="691,-252 408,-252 408,-216 691,-216 691,-252"/>
<text text-anchor="middle" x="549.5" y="-230.3" font-family="Times,serif" font-size="14.00">aws_ssm_parameter.vault_vault_addr</text>
</g>
<!-- [root] aws_ecs_task_definition.vault (expand)&#45;&gt;[root] aws_ssm_parameter.vault_vault_addr (expand) -->
<g id="edge8" class="edge">
<title>[root] aws_ecs_task_definition.vault (expand)&#45;&gt;[root] aws_ssm_parameter.vault_vault_addr (expand)</title>
<path fill="none" stroke="black" d="M796.17,-287.97C748.65,-277.76 688.11,-264.76 638.91,-254.2"/>
<polygon fill="black" stroke="black" points="639.42,-250.73 628.9,-252.05 637.95,-257.57 639.42,-250.73"/>
</g>
<!-- [root] aws_ssm_parameter.vault_vault_awskms_seal_key_id (expand) -->
<g id="node17" class="node">
<title>[root] aws_ssm_parameter.vault_vault_awskms_seal_key_id (expand)</title>
<polygon fill="none" stroke="black" points="1789.5,-252 1395.5,-252 1395.5,-216 1789.5,-216 1789.5,-252"/>
<text text-anchor="middle" x="1592.5" y="-230.3" font-family="Times,serif" font-size="14.00">aws_ssm_parameter.vault_vault_awskms_seal_key_id</text>
</g>
<!-- [root] aws_ecs_task_definition.vault (expand)&#45;&gt;[root] aws_ssm_parameter.vault_vault_awskms_seal_key_id (expand) -->
<g id="edge9" class="edge">
<title>[root] aws_ecs_task_definition.vault (expand)&#45;&gt;[root] aws_ssm_parameter.vault_vault_awskms_seal_key_id (expand)</title>
<path fill="none" stroke="black" d="M988.72,-293.95C1101.12,-282.97 1275.32,-265.97 1407.77,-253.03"/>
<polygon fill="black" stroke="black" points="1408.42,-256.49 1418.04,-252.03 1407.74,-249.52 1408.42,-256.49"/>
</g>
<!-- [root] aws_ssm_parameter.vault_vault_local_config (expand) -->
<g id="node18" class="node">
<title>[root] aws_ssm_parameter.vault_vault_local_config (expand)</title>
<polygon fill="none" stroke="black" points="1041.5,-252 709.5,-252 709.5,-216 1041.5,-216 1041.5,-252"/>
<text text-anchor="middle" x="875.5" y="-230.3" font-family="Times,serif" font-size="14.00">aws_ssm_parameter.vault_vault_local_config</text>
</g>
<!-- [root] aws_ecs_task_definition.vault (expand)&#45;&gt;[root] aws_ssm_parameter.vault_vault_local_config (expand) -->
<g id="edge10" class="edge">
<title>[root] aws_ecs_task_definition.vault (expand)&#45;&gt;[root] aws_ssm_parameter.vault_vault_local_config (expand)</title>
<path fill="none" stroke="black" d="M875.5,-287.7C875.5,-279.98 875.5,-270.71 875.5,-262.11"/>
<polygon fill="black" stroke="black" points="879,-262.1 875.5,-252.1 872,-262.1 879,-262.1"/>
</g>
<!-- [root] aws_ssm_parameter.vault_vault_seal_type (expand) -->
<g id="node19" class="node">
<title>[root] aws_ssm_parameter.vault_vault_seal_type (expand)</title>
<polygon fill="none" stroke="black" points="1377,-252 1060,-252 1060,-216 1377,-216 1377,-252"/>
<text text-anchor="middle" x="1218.5" y="-230.3" font-family="Times,serif" font-size="14.00">aws_ssm_parameter.vault_vault_seal_type</text>
</g>
<!-- [root] aws_ecs_task_definition.vault (expand)&#45;&gt;[root] aws_ssm_parameter.vault_vault_seal_type (expand) -->
<g id="edge11" class="edge">
<title>[root] aws_ecs_task_definition.vault (expand)&#45;&gt;[root] aws_ssm_parameter.vault_vault_seal_type (expand)</title>
<path fill="none" stroke="black" d="M958.97,-287.97C1009.17,-277.72 1073.19,-264.66 1125.08,-254.07"/>
<polygon fill="black" stroke="black" points="1125.86,-257.48 1134.95,-252.05 1124.46,-250.62 1125.86,-257.48"/>
</g>
<!-- [root] aws_iam_instance_profile.ecs_instance_profile (expand) -->
<g id="node4" class="node">
<title>[root] aws_iam_instance_profile.ecs_instance_profile (expand)</title>
<polygon fill="none" stroke="black" points="2469.5,-252 2125.5,-252 2125.5,-216 2469.5,-216 2469.5,-252"/>
<text text-anchor="middle" x="2297.5" y="-230.3" font-family="Times,serif" font-size="14.00">aws_iam_instance_profile.ecs_instance_profile</text>
</g>
<!-- [root] aws_iam_role.ecs_instance_role (expand) -->
<g id="node6" class="node">
<title>[root] aws_iam_role.ecs_instance_role (expand)</title>
<polygon fill="none" stroke="black" points="2418,-180 2177,-180 2177,-144 2418,-144 2418,-180"/>
<text text-anchor="middle" x="2297.5" y="-158.3" font-family="Times,serif" font-size="14.00">aws_iam_role.ecs_instance_role</text>
</g>
<!-- [root] aws_iam_instance_profile.ecs_instance_profile (expand)&#45;&gt;[root] aws_iam_role.ecs_instance_role (expand) -->
<g id="edge12" class="edge">
<title>[root] aws_iam_instance_profile.ecs_instance_profile (expand)&#45;&gt;[root] aws_iam_role.ecs_instance_role (expand)</title>
<path fill="none" stroke="black" d="M2297.5,-215.7C2297.5,-207.98 2297.5,-198.71 2297.5,-190.11"/>
<polygon fill="black" stroke="black" points="2301,-190.1 2297.5,-180.1 2294,-190.1 2301,-190.1"/>
</g>
<!-- [root] aws_iam_policy.kms_management_access (expand) -->
<g id="node5" class="node">
<title>[root] aws_iam_policy.kms_management_access (expand)</title>
<polygon fill="none" stroke="black" points="1687,-180 1376,-180 1376,-144 1687,-144 1687,-180"/>
<text text-anchor="middle" x="1531.5" y="-158.3" font-family="Times,serif" font-size="14.00">aws_iam_policy.kms_management_access</text>
</g>
<!-- [root] aws_iam_policy.kms_management_access (expand)&#45;&gt;[root] provider[&quot;registry.terraform.io/hashicorp/aws&quot;] -->
<g id="edge13" class="edge">
<title>[root] aws_iam_policy.kms_management_access (expand)&#45;&gt;[root] provider[&quot;registry.terraform.io/hashicorp/aws&quot;]</title>
<path fill="none" stroke="black" d="M1438.05,-143.97C1374.23,-132.33 1290.47,-117.06 1229.29,-105.91"/>
<polygon fill="black" stroke="black" points="1229.75,-102.44 1219.29,-104.09 1228.5,-109.32 1229.75,-102.44"/>
</g>
<!-- [root] aws_iam_role.ecs_instance_role (expand)&#45;&gt;[root] provider[&quot;registry.terraform.io/hashicorp/aws&quot;] -->
<g id="edge14" class="edge">
<title>[root] aws_iam_role.ecs_instance_role (expand)&#45;&gt;[root] provider[&quot;registry.terraform.io/hashicorp/aws&quot;]</title>
<path fill="none" stroke="black" d="M2176.78,-144.89C2173.66,-144.58 2170.56,-144.28 2167.5,-144 1888.86,-118.58 1566.2,-104.36 1359.64,-97.19"/>
<polygon fill="black" stroke="black" points="1359.7,-93.69 1349.59,-96.85 1359.46,-100.69 1359.7,-93.69"/>
</g>
<!-- [root] aws_iam_role.vault_task_role (expand)&#45;&gt;[root] aws_iam_policy.kms_management_access (expand) -->
<g id="edge15" class="edge">
<title>[root] aws_iam_role.vault_task_role (expand)&#45;&gt;[root] aws_iam_policy.kms_management_access (expand)</title>
<path fill="none" stroke="black" d="M1825.08,-215.97C1767.93,-205.66 1694.97,-192.49 1636.08,-181.87"/>
<polygon fill="black" stroke="black" points="1636.47,-178.38 1626.01,-180.05 1635.23,-185.27 1636.47,-178.38"/>
</g>
<!-- [root] aws_kms_key.vault_key (expand) -->
<g id="node8" class="node">
<title>[root] aws_kms_key.vault_key (expand)</title>
<polygon fill="none" stroke="black" points="1357.5,-180 1175.5,-180 1175.5,-144 1357.5,-144 1357.5,-180"/>
<text text-anchor="middle" x="1266.5" y="-158.3" font-family="Times,serif" font-size="14.00">aws_kms_key.vault_key</text>
</g>
<!-- [root] aws_kms_key.vault_key (expand)&#45;&gt;[root] provider[&quot;registry.terraform.io/hashicorp/aws&quot;] -->
<g id="edge16" class="edge">
<title>[root] aws_kms_key.vault_key (expand)&#45;&gt;[root] provider[&quot;registry.terraform.io/hashicorp/aws&quot;]</title>
<path fill="none" stroke="black" d="M1237.39,-143.88C1220.98,-134.23 1200.36,-122.1 1183.01,-111.89"/>
<polygon fill="black" stroke="black" points="1184.67,-108.8 1174.28,-106.75 1181.12,-114.84 1184.67,-108.8"/>
</g>
<!-- [root] aws_launch_template.vault (expand) -->
<g id="node9" class="node">
<title>[root] aws_launch_template.vault (expand)</title>
<polygon fill="none" stroke="black" points="2369,-324 2160,-324 2160,-288 2369,-288 2369,-324"/>
<text text-anchor="middle" x="2264.5" y="-302.3" font-family="Times,serif" font-size="14.00">aws_launch_template.vault</text>
</g>
<!-- [root] aws_launch_template.vault (expand)&#45;&gt;[root] aws_iam_instance_profile.ecs_instance_profile (expand) -->
<g id="edge17" class="edge">
<title>[root] aws_launch_template.vault (expand)&#45;&gt;[root] aws_iam_instance_profile.ecs_instance_profile (expand)</title>
<path fill="none" stroke="black" d="M2272.66,-287.7C2276.41,-279.73 2280.95,-270.1 2285.12,-261.26"/>
<polygon fill="black" stroke="black" points="2288.34,-262.64 2289.44,-252.1 2282.01,-259.66 2288.34,-262.64"/>
</g>
<!-- [root] aws_security_group.vault_instance (expand) -->
<g id="node11" class="node">
<title>[root] aws_security_group.vault_instance (expand)</title>
<polygon fill="none" stroke="black" points="1970,-180 1705,-180 1705,-144 1970,-144 1970,-180"/>
<text text-anchor="middle" x="1837.5" y="-158.3" font-family="Times,serif" font-size="14.00">aws_security_group.vault_instance</text>
</g>
<!-- [root] aws_launch_template.vault (expand)&#45;&gt;[root] aws_security_group.vault_instance (expand) -->
<g id="edge18" class="edge">
<title>[root] aws_launch_template.vault (expand)&#45;&gt;[root] aws_security_group.vault_instance (expand)</title>
<path fill="none" stroke="black" d="M2213,-287.95C2184.33,-278.11 2148.14,-265.12 2116.5,-252 2081.98,-237.68 2075.62,-228.78 2040.5,-216 2003.89,-202.68 1962.44,-191.24 1926.59,-182.44"/>
<polygon fill="black" stroke="black" points="1927.17,-178.98 1916.63,-180.02 1925.52,-185.78 1927.17,-178.98"/>
</g>
<!-- [root] data.template_file.vault_instance_user_data (expand) -->
<g id="node20" class="node">
<title>[root] data.template_file.vault_instance_user_data (expand)</title>
<polygon fill="none" stroke="black" points="2888,-252 2559,-252 2559,-216 2888,-216 2888,-252"/>
<text text-anchor="middle" x="2723.5" y="-230.3" font-family="Times,serif" font-size="14.00">data.template_file.vault_instance_user_data</text>
</g>
<!-- [root] aws_launch_template.vault (expand)&#45;&gt;[root] data.template_file.vault_instance_user_data (expand) -->
<g id="edge19" class="edge">
<title>[root] aws_launch_template.vault (expand)&#45;&gt;[root] data.template_file.vault_instance_user_data (expand)</title>
<path fill="none" stroke="black" d="M2369.23,-289.03C2438.47,-278.47 2529.48,-264.59 2601.92,-253.54"/>
<polygon fill="black" stroke="black" points="2602.65,-256.97 2612.01,-252 2601.6,-250.05 2602.65,-256.97"/>
</g>
<!-- [root] aws_s3_bucket.vault_coffee (expand) -->
<g id="node10" class="node">
<title>[root] aws_s3_bucket.vault_coffee (expand)</title>
<polygon fill="none" stroke="black" points="268.5,-180 56.5,-180 56.5,-144 268.5,-144 268.5,-180"/>
<text text-anchor="middle" x="162.5" y="-158.3" font-family="Times,serif" font-size="14.00">aws_s3_bucket.vault_coffee</text>
</g>
<!-- [root] aws_s3_bucket.vault_coffee (expand)&#45;&gt;[root] provider[&quot;registry.terraform.io/hashicorp/aws&quot;] -->
<g id="edge20" class="edge">
<title>[root] aws_s3_bucket.vault_coffee (expand)&#45;&gt;[root] provider[&quot;registry.terraform.io/hashicorp/aws&quot;]</title>
<path fill="none" stroke="black" d="M268.57,-151.53C298.3,-148.97 330.66,-146.29 360.5,-144 579.45,-127.23 832.89,-110.67 991.71,-100.64"/>
<polygon fill="black" stroke="black" points="992.27,-104.12 1002.03,-99.99 991.83,-97.13 992.27,-104.12"/>
</g>
<!-- [root] var.bucket_name -->
<g id="node24" class="node">
<title>[root] var.bucket_name</title>
<polygon fill="none" stroke="black" points="225,-108 94,-108 94,-72 231,-72 231,-102 225,-108"/>
<polyline fill="none" stroke="black" points="225,-108 225,-102 "/>
<polyline fill="none" stroke="black" points="231,-102 225,-102 "/>
<text text-anchor="middle" x="162.5" y="-86.3" font-family="Times,serif" font-size="14.00">var.bucket_name</text>
</g>
<!-- [root] aws_s3_bucket.vault_coffee (expand)&#45;&gt;[root] var.bucket_name -->
<g id="edge21" class="edge">
<title>[root] aws_s3_bucket.vault_coffee (expand)&#45;&gt;[root] var.bucket_name</title>
<path fill="none" stroke="black" d="M162.5,-143.7C162.5,-135.98 162.5,-126.71 162.5,-118.11"/>
<polygon fill="black" stroke="black" points="166,-118.1 162.5,-108.1 159,-118.1 166,-118.1"/>
</g>
<!-- [root] aws_security_group.vault_instance (expand)&#45;&gt;[root] provider[&quot;registry.terraform.io/hashicorp/aws&quot;] -->
<g id="edge22" class="edge">
<title>[root] aws_security_group.vault_instance (expand)&#45;&gt;[root] provider[&quot;registry.terraform.io/hashicorp/aws&quot;]</title>
<path fill="none" stroke="black" d="M1704.86,-145.02C1701.71,-144.68 1698.59,-144.33 1695.5,-144 1551.51,-128.42 1386,-112.72 1274.88,-102.49"/>
<polygon fill="black" stroke="black" points="1274.91,-98.98 1264.63,-101.55 1274.27,-105.95 1274.91,-98.98"/>
</g>
<!-- [root] aws_spot_fleet_request.vault (expand) -->
<g id="node12" class="node">
<title>[root] aws_spot_fleet_request.vault (expand)</title>
<polygon fill="none" stroke="black" points="2375.5,-396 2153.5,-396 2153.5,-360 2375.5,-360 2375.5,-396"/>
<text text-anchor="middle" x="2264.5" y="-374.3" font-family="Times,serif" font-size="14.00">aws_spot_fleet_request.vault</text>
</g>
<!-- [root] aws_spot_fleet_request.vault (expand)&#45;&gt;[root] aws_launch_template.vault (expand) -->
<g id="edge23" class="edge">
<title>[root] aws_spot_fleet_request.vault (expand)&#45;&gt;[root] aws_launch_template.vault (expand)</title>
<path fill="none" stroke="black" d="M2264.5,-359.7C2264.5,-351.98 2264.5,-342.71 2264.5,-334.11"/>
<polygon fill="black" stroke="black" points="2268,-334.1 2264.5,-324.1 2261,-334.1 2268,-334.1"/>
</g>
<!-- [root] var.account_id -->
<g id="node23" class="node">
<title>[root] var.account_id</title>
<polygon fill="none" stroke="black" points="2500,-324 2387,-324 2387,-288 2506,-288 2506,-318 2500,-324"/>
<polyline fill="none" stroke="black" points="2500,-324 2500,-318 "/>
<polyline fill="none" stroke="black" points="2506,-318 2500,-318 "/>
<text text-anchor="middle" x="2446.5" y="-302.3" font-family="Times,serif" font-size="14.00">var.account_id</text>
</g>
<!-- [root] aws_spot_fleet_request.vault (expand)&#45;&gt;[root] var.account_id -->
<g id="edge24" class="edge">
<title>[root] aws_spot_fleet_request.vault (expand)&#45;&gt;[root] var.account_id</title>
<path fill="none" stroke="black" d="M2309.02,-359.88C2334.23,-350.18 2365.95,-337.98 2392.57,-327.74"/>
<polygon fill="black" stroke="black" points="2394.05,-330.92 2402.12,-324.07 2391.53,-324.39 2394.05,-330.92"/>
</g>
<!-- [root] aws_ssm_parameter.vault_aws_region (expand)&#45;&gt;[root] provider[&quot;registry.terraform.io/hashicorp/aws&quot;] -->
<g id="edge25" class="edge">
<title>[root] aws_ssm_parameter.vault_aws_region (expand)&#45;&gt;[root] provider[&quot;registry.terraform.io/hashicorp/aws&quot;]</title>
<path fill="none" stroke="black" d="M657.36,-145.12C771.68,-132.49 929.34,-115.09 1034.66,-103.46"/>
<polygon fill="black" stroke="black" points="1035.13,-106.93 1044.68,-102.35 1034.36,-99.97 1035.13,-106.93"/>
</g>
<!-- [root] aws_ssm_parameter.vault_aws_s3_bucket (expand)&#45;&gt;[root] aws_s3_bucket.vault_coffee (expand) -->
<g id="edge26" class="edge">
<title>[root] aws_ssm_parameter.vault_aws_s3_bucket (expand)&#45;&gt;[root] aws_s3_bucket.vault_coffee (expand)</title>
<path fill="none" stroke="black" d="M157.98,-215.7C158.64,-207.98 159.44,-198.71 160.18,-190.11"/>
<polygon fill="black" stroke="black" points="163.67,-190.37 161.03,-180.1 156.69,-189.77 163.67,-190.37"/>
</g>
<!-- [root] aws_ssm_parameter.vault_skip_setcap (expand)&#45;&gt;[root] provider[&quot;registry.terraform.io/hashicorp/aws&quot;] -->
<g id="edge27" class="edge">
<title>[root] aws_ssm_parameter.vault_skip_setcap (expand)&#45;&gt;[root] provider[&quot;registry.terraform.io/hashicorp/aws&quot;]</title>
<path fill="none" stroke="black" d="M931.85,-143.97C977.2,-132.83 1036.09,-118.36 1080.88,-107.36"/>
<polygon fill="black" stroke="black" points="1081.91,-110.71 1090.78,-104.93 1080.24,-103.92 1081.91,-110.71"/>
</g>
<!-- [root] aws_ssm_parameter.vault_vault_addr (expand)&#45;&gt;[root] provider[&quot;registry.terraform.io/hashicorp/aws&quot;] -->
<g id="edge28" class="edge">
<title>[root] aws_ssm_parameter.vault_vault_addr (expand)&#45;&gt;[root] provider[&quot;registry.terraform.io/hashicorp/aws&quot;]</title>
<path fill="none" stroke="black" d="M691.13,-217.03C828.2,-201.55 1015.53,-180.36 1016.5,-180 1019.28,-178.97 1077.9,-138.84 1115.77,-112.83"/>
<polygon fill="black" stroke="black" points="1118.18,-115.42 1124.44,-106.87 1114.22,-109.65 1118.18,-115.42"/>
</g>
<!-- [root] aws_ssm_parameter.vault_vault_awskms_seal_key_id (expand)&#45;&gt;[root] aws_kms_key.vault_key (expand) -->
<g id="edge29" class="edge">
<title>[root] aws_ssm_parameter.vault_vault_awskms_seal_key_id (expand)&#45;&gt;[root] aws_kms_key.vault_key (expand)</title>
<path fill="none" stroke="black" d="M1513.17,-215.97C1465.65,-205.76 1405.11,-192.76 1355.91,-182.2"/>
<polygon fill="black" stroke="black" points="1356.42,-178.73 1345.9,-180.05 1354.95,-185.57 1356.42,-178.73"/>
</g>
<!-- [root] aws_ssm_parameter.vault_vault_local_config (expand)&#45;&gt;[root] provider[&quot;registry.terraform.io/hashicorp/aws&quot;] -->
<g id="edge30" class="edge">
<title>[root] aws_ssm_parameter.vault_vault_local_config (expand)&#45;&gt;[root] provider[&quot;registry.terraform.io/hashicorp/aws&quot;]</title>
<path fill="none" stroke="black" d="M982.44,-215.99C1012.45,-208.1 1044.07,-196.62 1070.5,-180 1096.26,-163.8 1118.11,-136.32 1131.88,-116.17"/>
<polygon fill="black" stroke="black" points="1134.84,-118.04 1137.45,-107.77 1129.01,-114.17 1134.84,-118.04"/>
</g>
<!-- [root] aws_ssm_parameter.vault_vault_seal_type (expand)&#45;&gt;[root] provider[&quot;registry.terraform.io/hashicorp/aws&quot;] -->
<g id="edge31" class="edge">
<title>[root] aws_ssm_parameter.vault_vault_seal_type (expand)&#45;&gt;[root] provider[&quot;registry.terraform.io/hashicorp/aws&quot;]</title>
<path fill="none" stroke="black" d="M1196.53,-215.79C1185.9,-206.33 1173.88,-193.74 1166.5,-180 1156.18,-160.8 1151.47,-136.46 1149.31,-118.08"/>
<polygon fill="black" stroke="black" points="1152.79,-117.64 1148.32,-108.04 1145.82,-118.33 1152.79,-117.64"/>
</g>
<!-- [root] data.template_file.vault_instance_user_data (expand)&#45;&gt;[root] aws_ecs_cluster.vault (expand) -->
<g id="edge32" class="edge">
<title>[root] data.template_file.vault_instance_user_data (expand)&#45;&gt;[root] aws_ecs_cluster.vault (expand)</title>
<path fill="none" stroke="black" d="M2558.87,-220.83C2450.92,-212 2306.53,-198.59 2168.96,-179.99"/>
<polygon fill="black" stroke="black" points="2169.02,-176.47 2158.64,-178.58 2168.08,-183.4 2169.02,-176.47"/>
</g>
<!-- [root] provider[&quot;registry.terraform.io/hashicorp/template&quot;] -->
<g id="node22" class="node">
<title>[root] provider[&quot;registry.terraform.io/hashicorp/template&quot;]</title>
<polygon fill="none" stroke="black" points="2794.5,-180 2436.06,-162 2794.5,-144 3152.94,-162 2794.5,-180"/>
<text text-anchor="middle" x="2794.5" y="-158.3" font-family="Times,serif" font-size="14.00">provider[&quot;registry.terraform.io/hashicorp/template&quot;]</text>
</g>
<!-- [root] data.template_file.vault_instance_user_data (expand)&#45;&gt;[root] provider[&quot;registry.terraform.io/hashicorp/template&quot;] -->
<g id="edge33" class="edge">
<title>[root] data.template_file.vault_instance_user_data (expand)&#45;&gt;[root] provider[&quot;registry.terraform.io/hashicorp/template&quot;]</title>
<path fill="none" stroke="black" d="M2741.05,-215.7C2749.86,-207.01 2760.68,-196.34 2770.27,-186.89"/>
<polygon fill="black" stroke="black" points="2772.98,-189.14 2777.64,-179.62 2768.06,-184.15 2772.98,-189.14"/>
</g>
<!-- [root] var.profile -->
<g id="node25" class="node">
<title>[root] var.profile</title>
<polygon fill="none" stroke="black" points="1186,-36 1103,-36 1103,0 1192,0 1192,-30 1186,-36"/>
<polyline fill="none" stroke="black" points="1186,-36 1186,-30 "/>
<polyline fill="none" stroke="black" points="1192,-30 1186,-30 "/>
<text text-anchor="middle" x="1147.5" y="-14.3" font-family="Times,serif" font-size="14.00">var.profile</text>
</g>
<!-- [root] provider[&quot;registry.terraform.io/hashicorp/aws&quot;]&#45;&gt;[root] var.profile -->
<g id="edge39" class="edge">
<title>[root] provider[&quot;registry.terraform.io/hashicorp/aws&quot;]&#45;&gt;[root] var.profile</title>
<path fill="none" stroke="black" d="M1147.5,-71.7C1147.5,-63.98 1147.5,-54.71 1147.5,-46.11"/>
<polygon fill="black" stroke="black" points="1151,-46.1 1147.5,-36.1 1144,-46.1 1151,-46.1"/>
</g>
<!-- [root] var.vpc_id -->
<g id="node26" class="node">
<title>[root] var.vpc_id</title>
<polygon fill="none" stroke="black" points="2475.5,-396 2393.5,-396 2393.5,-360 2481.5,-360 2481.5,-390 2475.5,-396"/>
<polyline fill="none" stroke="black" points="2475.5,-396 2475.5,-390 "/>
<polyline fill="none" stroke="black" points="2481.5,-390 2475.5,-390 "/>
<text text-anchor="middle" x="2437.5" y="-374.3" font-family="Times,serif" font-size="14.00">var.vpc_id</text>
</g>
<!-- [root] meta.count&#45;boundary (EachMode fixup) -->
<g id="node27" class="node">
<title>[root] meta.count&#45;boundary (EachMode fixup)</title>
<ellipse fill="none" stroke="black" cx="2351.5" cy="-450" rx="222.86" ry="18"/>
<text text-anchor="middle" x="2351.5" y="-446.3" font-family="Times,serif" font-size="14.00">[root] meta.count&#45;boundary (EachMode fixup)</text>
</g>
<!-- [root] meta.count&#45;boundary (EachMode fixup)&#45;&gt;[root] aws_ecs_service.vault (expand) -->
<g id="edge34" class="edge">
<title>[root] meta.count&#45;boundary (EachMode fixup)&#45;&gt;[root] aws_ecs_service.vault (expand)</title>
<path fill="none" stroke="black" d="M2251.75,-433.85C2173.46,-421.97 2065.09,-405.51 1987.51,-393.73"/>
<polygon fill="black" stroke="black" points="1987.67,-390.21 1977.25,-392.17 1986.62,-397.13 1987.67,-390.21"/>
</g>
<!-- [root] meta.count&#45;boundary (EachMode fixup)&#45;&gt;[root] aws_spot_fleet_request.vault (expand) -->
<g id="edge35" class="edge">
<title>[root] meta.count&#45;boundary (EachMode fixup)&#45;&gt;[root] aws_spot_fleet_request.vault (expand)</title>
<path fill="none" stroke="black" d="M2330.44,-432.05C2319.41,-423.18 2305.72,-412.17 2293.69,-402.48"/>
<polygon fill="black" stroke="black" points="2295.65,-399.57 2285.67,-396.03 2291.26,-405.03 2295.65,-399.57"/>
</g>
<!-- [root] meta.count&#45;boundary (EachMode fixup)&#45;&gt;[root] var.vpc_id -->
<g id="edge36" class="edge">
<title>[root] meta.count&#45;boundary (EachMode fixup)&#45;&gt;[root] var.vpc_id</title>
<path fill="none" stroke="black" d="M2372.32,-432.05C2383.22,-423.18 2396.75,-412.17 2408.65,-402.48"/>
<polygon fill="black" stroke="black" points="2411.03,-405.06 2416.58,-396.03 2406.61,-399.63 2411.03,-405.06"/>
</g>
<!-- [root] provider[&quot;registry.terraform.io/hashicorp/aws&quot;] (close) -->
<g id="node28" class="node">
<title>[root] provider[&quot;registry.terraform.io/hashicorp/aws&quot;] (close)</title>
<ellipse fill="none" stroke="black" cx="1818.5" cy="-450" rx="291.65" ry="18"/>
<text text-anchor="middle" x="1818.5" y="-446.3" font-family="Times,serif" font-size="14.00">[root] provider[&quot;registry.terraform.io/hashicorp/aws&quot;] (close)</text>
</g>
<!-- [root] provider[&quot;registry.terraform.io/hashicorp/aws&quot;] (close)&#45;&gt;[root] aws_ecs_service.vault (expand) -->
<g id="edge37" class="edge">
<title>[root] provider[&quot;registry.terraform.io/hashicorp/aws&quot;] (close)&#45;&gt;[root] aws_ecs_service.vault (expand)</title>
<path fill="none" stroke="black" d="M1836.3,-431.7C1845.1,-423.14 1855.88,-412.66 1865.5,-403.3"/>
<polygon fill="black" stroke="black" points="1868.18,-405.58 1872.91,-396.1 1863.3,-400.57 1868.18,-405.58"/>
</g>
<!-- [root] provider[&quot;registry.terraform.io/hashicorp/aws&quot;] (close)&#45;&gt;[root] aws_spot_fleet_request.vault (expand) -->
<g id="edge38" class="edge">
<title>[root] provider[&quot;registry.terraform.io/hashicorp/aws&quot;] (close)&#45;&gt;[root] aws_spot_fleet_request.vault (expand)</title>
<path fill="none" stroke="black" d="M1919.7,-433.12C1986.82,-422.58 2075.18,-408.71 2145.64,-397.65"/>
<polygon fill="black" stroke="black" points="2146.57,-401.05 2155.9,-396.04 2145.48,-394.14 2146.57,-401.05"/>
</g>
<!-- [root] provider[&quot;registry.terraform.io/hashicorp/template&quot;] (close) -->
<g id="node29" class="node">
<title>[root] provider[&quot;registry.terraform.io/hashicorp/template&quot;] (close)</title>
<ellipse fill="none" stroke="black" cx="2907.5" cy="-450" rx="315.44" ry="18"/>
<text text-anchor="middle" x="2907.5" y="-446.3" font-family="Times,serif" font-size="14.00">[root] provider[&quot;registry.terraform.io/hashicorp/template&quot;] (close)</text>
</g>
<!-- [root] provider[&quot;registry.terraform.io/hashicorp/template&quot;] (close)&#45;&gt;[root] data.template_file.vault_instance_user_data (expand) -->
<g id="edge40" class="edge">
<title>[root] provider[&quot;registry.terraform.io/hashicorp/template&quot;] (close)&#45;&gt;[root] data.template_file.vault_instance_user_data (expand)</title>
<path fill="none" stroke="black" d="M2892.75,-431.85C2860.32,-394.13 2782.68,-303.83 2744.89,-259.88"/>
<polygon fill="black" stroke="black" points="2747.49,-257.53 2738.32,-252.23 2742.18,-262.1 2747.49,-257.53"/>
</g>
<!-- [root] root -->
<g id="node30" class="node">
<title>[root] root</title>
<ellipse fill="none" stroke="black" cx="2351.5" cy="-522" rx="58.49" ry="18"/>
<text text-anchor="middle" x="2351.5" y="-518.3" font-family="Times,serif" font-size="14.00">[root] root</text>
</g>
<!-- [root] root&#45;&gt;[root] meta.count&#45;boundary (EachMode fixup) -->
<g id="edge41" class="edge">
<title>[root] root&#45;&gt;[root] meta.count&#45;boundary (EachMode fixup)</title>
<path fill="none" stroke="black" d="M2351.5,-503.7C2351.5,-495.98 2351.5,-486.71 2351.5,-478.11"/>
<polygon fill="black" stroke="black" points="2355,-478.1 2351.5,-468.1 2348,-478.1 2355,-478.1"/>
</g>
<!-- [root] root&#45;&gt;[root] provider[&quot;registry.terraform.io/hashicorp/aws&quot;] (close) -->
<g id="edge42" class="edge">
<title>[root] root&#45;&gt;[root] provider[&quot;registry.terraform.io/hashicorp/aws&quot;] (close)</title>
<path fill="none" stroke="black" d="M2298.94,-514.1C2217.67,-503.42 2059.17,-482.61 1946.46,-467.81"/>
<polygon fill="black" stroke="black" points="1946.76,-464.31 1936.39,-466.48 1945.85,-471.25 1946.76,-464.31"/>
</g>
<!-- [root] root&#45;&gt;[root] provider[&quot;registry.terraform.io/hashicorp/template&quot;] (close) -->
<g id="edge43" class="edge">
<title>[root] root&#45;&gt;[root] provider[&quot;registry.terraform.io/hashicorp/template&quot;] (close)</title>
<path fill="none" stroke="black" d="M2404.56,-514.32C2488.7,-503.73 2655.29,-482.75 2773.67,-467.85"/>
<polygon fill="black" stroke="black" points="2774.41,-471.28 2783.89,-466.56 2773.54,-464.34 2774.41,-471.28"/>
</g>
</g>
</svg>
